<?xml version="1.0" encoding="UTF-8"?>
<svg xmlns="http://www.w3.org/2000/svg" width="1024" height="1024" viewBox="0 0 1024 1024" role="img" aria-labelledby="title desc">
  <title id="title">Lhamiel application icon</title>
  <desc id="desc">A glossy folder icon in bright turquoise, milky white, and soft pink keyboard colors.</desc>
  <defs>
    <radialGradient id="bg" cx="32%" cy="24%" r="86%">
      <stop offset="0" stop-color="#f7f4ea"/>
      <stop offset="0.28" stop-color="#dffaf4"/>
      <stop offset="0.58" stop-color="#9ff5ee"/>
      <stop offset="1" stop-color="#f47ead"/>
    </radialGradient>
    <linearGradient id="rim" x1="110" y1="904" x2="914" y2="104" gradientUnits="userSpaceOnUse">
      <stop offset="0" stop-color="#10f4f1"/>
      <stop offset="0.52" stop-color="#f7f1df"/>
      <stop offset="1" stop-color="#ff79b2"/>
    </linearGradient>
    <linearGradient id="folderFill" x1="224" y1="286" x2="810" y2="764" gradientUnits="userSpaceOnUse">
      <stop offset="0" stop-color="#13d7d6" stop-opacity="0.98"/>
      <stop offset="0.52" stop-color="#00abc4" stop-opacity="0.96"/>
      <stop offset="1" stop-color="#0798b9" stop-opacity="0.94"/>
    </linearGradient>
    <linearGradient id="folderStroke" x1="224" y1="764" x2="810" y2="286" gradientUnits="userSpaceOnUse">
      <stop offset="0" stop-color="#19f6ef"/>
      <stop offset="0.44" stop-color="#fff7e5"/>
      <stop offset="1" stop-color="#ff7fb7"/>
    </linearGradient>
    <linearGradient id="folderShine" x1="286" y1="404" x2="776" y2="670" gradientUnits="userSpaceOnUse">
      <stop offset="0" stop-color="#fffdf1" stop-opacity="0.68"/>
      <stop offset="0.42" stop-color="#35f5ee" stop-opacity="0.24"/>
      <stop offset="1" stop-color="#ff8fb9" stop-opacity="0.5"/>
    </linearGradient>
    <filter id="shadow" x="-20%" y="-20%" width="140%" height="140%">
      <feDropShadow dx="0" dy="26" stdDeviation="18" flood-color="#6b5f58" flood-opacity="0.34"/>
    </filter>
    <filter id="glow" x="-35%" y="-35%" width="170%" height="170%">
      <feGaussianBlur stdDeviation="8" result="blur"/>
      <feMerge>
        <feMergeNode in="blur"/>
        <feMergeNode in="SourceGraphic"/>
      </feMerge>
    </filter>
    <clipPath id="tile">
      <rect x="72" y="56" width="880" height="880" rx="184"/>
    </clipPath>
  </defs>

  <rect x="64" y="64" width="896" height="896" rx="188" fill="#8d857c" opacity="0.34"/>
  <rect x="72" y="56" width="880" height="880" rx="184" fill="url(#bg)"/>
  <g clip-path="url(#tile)" opacity="0.26">
    <path d="M124 682C296 544 382 372 526 270C664 172 818 214 912 330" fill="none" stroke="#00dbe8" stroke-width="8" opacity="0.34"/>
    <path d="M134 778C312 690 414 560 474 420C548 248 728 194 896 246" fill="none" stroke="#fff6df" stroke-width="5" opacity="0.34"/>
    <path d="M190 824C330 684 424 626 526 626C628 626 716 684 834 824" fill="none" stroke="#ff74ad" stroke-width="8" opacity="0.3"/>
  </g>
  <rect x="94" y="78" width="836" height="836" rx="166" fill="none" stroke="url(#rim)" stroke-width="30" opacity="0.92"/>
  <rect x="122" y="106" width="780" height="780" rx="140" fill="none" stroke="#fff8e8" stroke-width="9" opacity="0.48"/>

  <g filter="url(#shadow)">
    <path d="M226 342C226 298 260 272 304 272H434C462 272 474 314 508 314H730C774 314 808 348 808 392V668C808 712 774 746 730 746H304C260 746 226 712 226 668Z" fill="url(#folderFill)" stroke="url(#folderStroke)" stroke-width="14"/>
    <path d="M202 462C212 420 250 394 298 394H754C804 394 836 438 822 486L768 704C758 748 720 778 672 778H282C232 778 198 734 212 686Z" fill="url(#folderFill)" stroke="url(#folderStroke)" stroke-width="15"/>
    <path d="M302 424H762" fill="none" stroke="#fff7e5" stroke-width="11" stroke-linecap="round" opacity="0.54"/>
    <path d="M282 690H748" fill="none" stroke="#13eee7" stroke-width="9" stroke-linecap="round" opacity="0.48"/>
    <path d="M276 488C346 452 650 452 746 486" fill="none" stroke="url(#folderShine)" stroke-width="18" stroke-linecap="round" opacity="0.62"/>
    <path d="M292 598C410 552 598 556 724 606" fill="none" stroke="#fff7e5" stroke-width="7" stroke-linecap="round" opacity="0.34"/>
  </g>
</svg>
